<?xml version="1.0" encoding="iso-8859-1"?><svg viewBox="0 0 512 512" xmlns="http://www.w3.org/2000/svg" xmlns:xlink="http://www.w3.org/1999/xlink"><style>:root>svg{display:none}:root>svg:target{display:block}</style><svg viewBox="0 0 512.001 512.001" id="cancel" xmlns="http://www.w3.org/2000/svg"><path d="M294.111 256.001L504.109 46.003c10.523-10.524 10.523-27.586 0-38.109-10.524-10.524-27.587-10.524-38.11 0L256 217.892 46.002 7.894C35.478-2.63 18.416-2.63 7.893 7.894s-10.524 27.586 0 38.109l209.998 209.998L7.893 465.999c-10.524 10.524-10.524 27.586 0 38.109 10.524 10.524 27.586 10.523 38.109 0L256 294.11l209.997 209.998c10.524 10.524 27.587 10.523 38.11 0 10.523-10.524 10.523-27.586 0-38.109L294.111 256.001z"/></svg><svg viewBox="0 0 47.607 47.607" id="pause" xmlns="http://www.w3.org/2000/svg"><path d="M17.991 40.976a6.631 6.631 0 01-13.262 0V6.631a6.631 6.631 0 0113.262 0v34.345zM42.877 40.976a6.631 6.631 0 01-13.262 0V6.631a6.631 6.631 0 0113.262 0v34.345z"/></svg><svg viewBox="0 0 247.506 247.506" id="play" xmlns="http://www.w3.org/2000/svg"><path d="M19.028 247.506V0l209.449 123.759L19.028 247.506z"/></svg></svg>