<?xml version="1.0" encoding="iso-8859-1"?><svg viewBox="0 0 512 512" xmlns="http://www.w3.org/2000/svg" xmlns:xlink="http://www.w3.org/1999/xlink"><style>:root>svg{display:none}:root>svg:target{display:block}</style><svg viewBox="0 0 512.001 512.001" id="cancel" xmlns="http://www.w3.org/2000/svg"><path d="M294.111 256.001L504.109 46.003c10.523-10.524 10.523-27.586 0-38.109-10.524-10.524-27.587-10.524-38.11 0L256 217.892 46.002 7.894C35.478-2.63 18.416-2.63 7.893 7.894s-10.524 27.586 0 38.109l209.998 209.998L7.893 465.999c-10.524 10.524-10.524 27.586 0 38.109 10.524 10.524 27.586 10.523 38.109 0L256 294.11l209.997 209.998c10.524 10.524 27.587 10.523 38.11 0 10.523-10.524 10.523-27.586 0-38.109L294.111 256.001z"/></svg><svg viewBox="0 0 512 512" id="exclamation" xmlns="http://www.w3.org/2000/svg"><path d="M256 0C114.497 0 0 114.507 0 256c0 141.503 114.507 256 256 256 141.503 0 256-114.507 256-256C512 114.497 397.493 0 256 0zm0 472c-119.393 0-216-96.615-216-216 0-119.393 96.615-216 216-216 119.393 0 216 96.615 216 216 0 119.393-96.615 216-216 216z"/><path d="M256 128.877c-11.046 0-20 8.954-20 20V277.67c0 11.046 8.954 20 20 20s20-8.954 20-20V148.877c0-11.046-8.954-20-20-20z"/><circle cx="256" cy="349.16" r="27"/></svg><svg viewBox="0 0 47.607 47.607" id="pause" xmlns="http://www.w3.org/2000/svg"><path d="M17.991 40.976a6.631 6.631 0 01-13.262 0V6.631a6.631 6.631 0 0113.262 0v34.345zM42.877 40.976a6.631 6.631 0 01-13.262 0V6.631a6.631 6.631 0 0113.262 0v34.345z"/></svg><svg viewBox="0 0 247.506 247.506" id="play" xmlns="http://www.w3.org/2000/svg"><path d="M19.028 247.506V0l209.449 123.759L19.028 247.506z"/></svg><svg viewBox="0 0 512 512" id="upload" xmlns="http://www.w3.org/2000/svg"><path d="M472 312.642v139c0 11.028-8.972 20-20 20H60c-11.028 0-20-8.972-20-20v-139H0v139c0 33.084 26.916 60 60 60h392c33.084 0 60-26.916 60-60v-139h-40z"/><path d="M256 .358L131.716 124.642 160 152.926l76-76v311.716h40V76.926l76 76 28.284-28.284z"/></svg></svg>