<svg width="157" height="25" viewBox="0 0 157 25" fill="none" xmlns="http://www.w3.org/2000/svg">
<path d="M35.1146 16.96C32.7413 16.96 30.8613 16.2533 29.4746 14.84L31.0146 12.68C32.1613 13.88 33.5746 14.48 35.2546 14.48C35.9879 14.48 36.5546 14.34 36.9546 14.06C37.3679 13.7667 37.5746 13.4133 37.5746 13C37.5746 12.64 37.3813 12.34 36.9946 12.1C36.6213 11.86 36.1479 11.6867 35.5746 11.58C35.0146 11.4733 34.4013 11.32 33.7346 11.12C33.0679 10.92 32.4479 10.6933 31.8746 10.44C31.3146 10.1867 30.8413 9.78667 30.4546 9.24C30.0813 8.69333 29.8946 8.02667 29.8946 7.24C29.8946 6.09333 30.3546 5.13333 31.2746 4.36C32.1946 3.57333 33.4213 3.18 34.9546 3.18C37.0746 3.18 38.8079 3.8 40.1546 5.04L38.5746 7.12C37.5213 6.14667 36.2279 5.66 34.6946 5.66C34.0946 5.66 33.6279 5.78 33.2946 6.02C32.9613 6.26 32.7946 6.58667 32.7946 7C32.7946 7.32 32.9813 7.59333 33.3546 7.82C33.7413 8.03333 34.2146 8.19333 34.7746 8.3C35.3479 8.40667 35.9613 8.56667 36.6146 8.78C37.2813 8.98 37.8946 9.21333 38.4546 9.48C39.0279 9.73333 39.5013 10.14 39.8746 10.7C40.2613 11.2467 40.4546 11.9067 40.4546 12.68C40.4546 13.96 39.9946 14.9933 39.0746 15.78C38.1679 16.5667 36.8479 16.96 35.1146 16.96Z" fill="white"/>
<path d="M44.8468 16.72H42.3068V3.38H44.8468V16.72Z" fill="white"/>
<path d="M48.6254 6.02C48.2121 6.02 47.8521 5.87333 47.5454 5.58C47.2521 5.27333 47.1054 4.91333 47.1054 4.5C47.1054 4.08667 47.2521 3.73333 47.5454 3.44C47.8521 3.14667 48.2121 3 48.6254 3C49.0521 3 49.4121 3.14667 49.7054 3.44C49.9987 3.73333 50.1454 4.08667 50.1454 4.5C50.1454 4.91333 49.9987 5.27333 49.7054 5.58C49.4121 5.87333 49.0521 6.02 48.6254 6.02ZM49.9054 16.72H47.3654V7.06H49.9054V16.72Z" fill="white"/>
<path d="M56.924 16.96C55.4307 16.96 54.204 16.4867 53.244 15.54C52.284 14.5933 51.804 13.3733 51.804 11.88C51.804 10.4 52.284 9.18667 53.244 8.24C54.204 7.29333 55.4307 6.82 56.924 6.82C58.6307 6.82 59.904 7.4 60.744 8.56L59.084 10.12C58.6173 9.42667 57.9373 9.08 57.044 9.08C56.2707 9.08 55.6373 9.34 55.144 9.86C54.664 10.3667 54.424 11.04 54.424 11.88C54.424 12.72 54.664 13.4 55.144 13.92C55.6373 14.44 56.2707 14.7 57.044 14.7C57.9107 14.7 58.5907 14.3533 59.084 13.66L60.744 15.2C59.904 16.3733 58.6307 16.96 56.924 16.96Z" fill="white"/>
<path d="M66.9445 16.96C65.4511 16.96 64.2178 16.4933 63.2445 15.56C62.2711 14.6267 61.7845 13.4 61.7845 11.88C61.7845 10.4533 62.2511 9.25333 63.1845 8.28C64.1311 7.30667 65.3311 6.82 66.7845 6.82C68.2245 6.82 69.3911 7.31333 70.2845 8.3C71.1778 9.27333 71.6245 10.5533 71.6245 12.14V12.7H64.4445C64.5245 13.34 64.8111 13.8733 65.3045 14.3C65.7978 14.7267 66.4378 14.94 67.2245 14.94C67.6511 14.94 68.1111 14.8533 68.6045 14.68C69.1111 14.5067 69.5111 14.2733 69.8045 13.98L70.9245 15.62C69.9511 16.5133 68.6245 16.96 66.9445 16.96ZM69.1645 10.98C69.1245 10.4333 68.9045 9.94 68.5045 9.5C68.1178 9.06 67.5445 8.84 66.7845 8.84C66.0645 8.84 65.5045 9.06 65.1045 9.5C64.7045 9.92667 64.4711 10.42 64.4045 10.98H69.1645Z" fill="white"/>
<path d="M81.4763 16.72H78.6363V3.38H84.8763C86.2763 3.38 87.3697 3.79333 88.1563 4.62C88.9563 5.43333 89.3563 6.45333 89.3563 7.68C89.3563 8.89333 88.9563 9.91333 88.1563 10.74C87.3563 11.5667 86.263 11.98 84.8763 11.98H81.4763V16.72ZM84.4963 9.48C85.0697 9.48 85.5363 9.32 85.8963 9C86.2697 8.66667 86.4563 8.22667 86.4563 7.68C86.4563 7.13333 86.2697 6.7 85.8963 6.38C85.5363 6.04667 85.0697 5.88 84.4963 5.88H81.4763V9.48H84.4963Z" fill="white"/>
<path d="M99.0062 16.72H96.4662V15.72C95.7728 16.5467 94.7528 16.96 93.4062 16.96C92.5395 16.96 91.7595 16.68 91.0662 16.12C90.3862 15.5467 90.0462 14.76 90.0462 13.76C90.0462 12.72 90.3795 11.94 91.0462 11.42C91.7262 10.9 92.5128 10.64 93.4062 10.64C94.7795 10.64 95.7995 11.0333 96.4662 11.82V10.52C96.4662 10.0267 96.2728 9.63333 95.8862 9.34C95.4995 9.04667 94.9862 8.9 94.3462 8.9C93.2928 8.9 92.3528 9.28 91.5262 10.04L90.5662 8.34C91.7128 7.32667 93.1195 6.82 94.7862 6.82C96.0262 6.82 97.0395 7.10667 97.8262 7.68C98.6128 8.25333 99.0062 9.18667 99.0062 10.48V16.72ZM94.4262 15.24C95.3728 15.24 96.0528 14.96 96.4662 14.4V13.2C96.0528 12.64 95.3728 12.36 94.4262 12.36C93.9062 12.36 93.4728 12.4933 93.1262 12.76C92.7795 13.0133 92.6062 13.3667 92.6062 13.82C92.6062 14.26 92.7795 14.6067 93.1262 14.86C93.4728 15.1133 93.9062 15.24 94.4262 15.24Z" fill="white"/>
<path d="M101.186 20.5L101.566 18.22C101.806 18.3267 102.072 18.38 102.366 18.38C103.046 18.38 103.492 18.1467 103.706 17.68L104.066 16.86L100.146 7.06H102.866L105.386 13.78L107.906 7.06H110.646L106.106 18.3C105.772 19.1533 105.306 19.7467 104.706 20.08C104.106 20.4267 103.352 20.6133 102.446 20.64C101.979 20.64 101.559 20.5933 101.186 20.5Z" fill="white"/>
<path d="M126.319 16.72H123.759V10.62C123.759 9.59333 123.279 9.08 122.319 9.08C121.906 9.08 121.519 9.19333 121.159 9.42C120.813 9.64667 120.533 9.90667 120.319 10.2V16.72H117.759V10.62C117.759 9.59333 117.279 9.08 116.319 9.08C115.919 9.08 115.539 9.19333 115.179 9.42C114.819 9.64667 114.533 9.91333 114.319 10.22V16.72H111.779V7.06H114.319V8.32C114.559 7.97333 114.979 7.64 115.579 7.32C116.179 6.98667 116.813 6.82 117.479 6.82C118.879 6.82 119.773 7.40667 120.159 8.58C120.466 8.1 120.919 7.68667 121.519 7.34C122.133 6.99333 122.786 6.82 123.479 6.82C124.386 6.82 125.086 7.06667 125.579 7.56C126.073 8.04 126.319 8.76667 126.319 9.74V16.72Z" fill="white"/>
<path d="M133.351 16.96C131.857 16.96 130.624 16.4933 129.651 15.56C128.677 14.6267 128.191 13.4 128.191 11.88C128.191 10.4533 128.657 9.25333 129.591 8.28C130.537 7.30667 131.737 6.82 133.191 6.82C134.631 6.82 135.797 7.31333 136.691 8.3C137.584 9.27333 138.031 10.5533 138.031 12.14V12.7H130.851C130.931 13.34 131.217 13.8733 131.711 14.3C132.204 14.7267 132.844 14.94 133.631 14.94C134.057 14.94 134.517 14.8533 135.011 14.68C135.517 14.5067 135.917 14.2733 136.211 13.98L137.331 15.62C136.357 16.5133 135.031 16.96 133.351 16.96ZM135.571 10.98C135.531 10.4333 135.311 9.94 134.911 9.5C134.524 9.06 133.951 8.84 133.191 8.84C132.471 8.84 131.911 9.06 131.511 9.5C131.111 9.92667 130.877 10.42 130.811 10.98H135.571Z" fill="white"/>
<path d="M148.925 16.72H146.385V10.88C146.385 9.68 145.792 9.08 144.605 9.08C143.685 9.08 142.952 9.46 142.405 10.22V16.72H139.865V7.06H142.405V8.32C143.245 7.32 144.372 6.82 145.785 6.82C146.825 6.82 147.605 7.09333 148.125 7.64C148.659 8.18667 148.925 8.94 148.925 9.9V16.72Z" fill="white"/>
<path d="M154.687 16.96C153.794 16.96 153.114 16.7333 152.647 16.28C152.181 15.8267 151.947 15.1733 151.947 14.32V9.28H150.347V7.06H151.947V4.42H154.507V7.06H156.467V9.28H154.507V13.64C154.507 13.9467 154.587 14.2 154.747 14.4C154.907 14.6 155.121 14.7 155.387 14.7C155.787 14.7 156.081 14.6067 156.267 14.42L156.807 16.34C156.341 16.7533 155.634 16.96 154.687 16.96Z" fill="white"/>
<path fill-rule="evenodd" clip-rule="evenodd" d="M11.5984 0C16.1369 0 19.8273 3.66749 19.8273 8.206C19.8273 12.7445 16.1369 16.4349 11.5984 16.4349H5.61584L0 24.4576V0H11.5984Z" fill="#FFCF5C"/>
<path fill-rule="evenodd" clip-rule="evenodd" d="M10.0075 7.12868H13.1249L6.61509 16.4349L10.0075 7.12868ZM9.20525 9.28332H6.08789L12.5977 0L9.20525 9.28332Z" fill="black"/>
</svg>
